
<global>
amp_veltrack=0
ampeg_release=0.35
</global>

<group>
group_label=PP
lpc_hicc1=42
lpc_locc1=0

<region>
hikey=a3
hivel=127
lokey=g#3
loop_end=270749
loop_mode=loop_continuous
loop_start=112526
loop_xfade=47466
lovel=0
lpc=rao+Qc10AMJePBBCjrWdwfMYJEBqig9Ak3pePmm527+ND30/iPCyPwTnh8A49YxAXALJv+7A9b+InKZAJ9PLwNA7kkCDcwXAoxanP5LfKr9j9MO/VSE1QKli078gWMU+
lpc_rms=-47.11
pitch_keycenter=a3
sample=Soloviolin1_trill_perf4th_PP_A3.opus
</region>

<region>
hikey=a4
hivel=127
lokey=g#4
loop_end=261558
loop_mode=loop_continuous
loop_start=96056
loop_xfade=40518
lovel=0
lpc=KLXXQOMPd8FJbYZBXS1GwcZJDUE/qwzBIS7vQAvyhMCvqZA/xzYEQICUYsASeyFAfV81v7T9nL/0GFdAXeJ5wIlpbEDJrUTAKbILQORt4b9z2MQ/t1HRv0V2FT8RCQY/
lpc_rms=-44.46
pitch_keycenter=a4
sample=Soloviolin1_trill_perf4th_PP_A4.opus
</region>

<region>
hikey=a5
hivel=127
lokey=g#5
loop_end=264785
loop_mode=loop_continuous
loop_start=115662
loop_xfade=48789
lovel=0
lpc=j7PIQGv6JcENQhxBznS8wMzqFEDUjKG+WD+jPqDgIL+gIis/zS62P8yM5r/PYlNA/6v+v1N+mz/aHa0+KGGCuq6WkT/0bwfA+DY6QAPWSMCZ1f8/EfC3PsO3jL/1adA/
lpc_rms=-44.70
pitch_keycenter=a5
sample=Soloviolin1_trill_perf4th_PP_A5.opus
</region>

<region>
hikey=a6
hivel=127
lokey=g#6
loop_end=273302
loop_mode=loop_continuous
loop_start=107462
loop_xfade=45330
lovel=0
lpc=0CvvQCjxC8FJd+9Ae7Y6wCQt6z+Q+dK/6WhjQEGY/78K4ro/7Ptqv1jWyb+nYLk/QJAuva/gRMCOxkQ+r88LQPC5b8C52jJAkEgcv2t1Pr8H3lG/IezzP+yw6L9exTxA
lpc_rms=-46.56
pitch_keycenter=a6
sample=Soloviolin1_trill_perf4th_PP_A6.opus
</region>

<region>
hikey=b3
hivel=127
lokey=a#3
loop_end=279075
loop_mode=loop_continuous
loop_start=95043
loop_xfade=40091
lovel=0
lpc=nNlkQec3H8LVvTtCA4zQwX43/T/I1pdAcRIbvxCw4L8vFpQ/6HRcPx95esD3GmdAoZ1eP1KDo8A4N9xAb+/fwGbstUB55FzA8FZOQBLqHMB6Anu/81OWQEfYn8Dwbg1A
lpc_rms=-41.96
pitch_keycenter=b3
sample=Soloviolin1_trill_perf4th_PP_B3.opus
</region>

<region>
hikey=b4
hivel=127
lokey=a#4
loop_end=268851
loop_mode=loop_continuous
loop_start=111738
loop_xfade=47133
lovel=0
lpc=K+AdQaxju8HKg9pBan2jwTeUTEHQvxfB+grHQHm05r/zBLi+2LVQPwunFT44ilC/on7kv5CU5D8dKChAa1rQwNt/4UDURnbAMDvwPqGOMkCTQ4jABqSGQMTZZ8Ce5gpA
lpc_rms=-42.90
pitch_keycenter=b4
sample=Soloviolin1_trill_perf4th_PP_B4.opus
</region>

<region>
hikey=b5
hivel=127
lokey=a#5
loop_end=270720
loop_mode=loop_continuous
loop_start=112514
loop_xfade=47461
lovel=0
lpc=ZfzFQDOuCcE3y/RAZ6aPwHt0DkCAQ/C+7cwKP81uf76cky4/VC9Kvkk1Kb840Lk/QWmpvzfu7j9mEZa/Sn+qP/CJrjxTUkm/i40TP97jKj3ErIK+3Y8FPx31XT9WPgvA
lpc_rms=-45.61
pitch_keycenter=b5
sample=Soloviolin1_trill_perf4th_PP_B5.opus
</region>

<region>
hikey=b6
hivel=127
lokey=a#6
loop_end=272434
loop_mode=loop_continuous
loop_start=93288
loop_xfade=39351
lovel=0
lpc=lzdlQW6QpMF4loJBUXOFwA/tq74u1zZA4fCLP7ZpaT5isQXAd3CIPg7KV0BAtQk/Jgc6wazhYUGtZbXAmzH4vyyTikAlaSPA5JpZv6SswD/yc84/+1IKQMJNOsAE3Ic/
lpc_rms=-41.23
pitch_keycenter=B6
sample=Soloviolin1_trill_perf4th_PP_B6.opus
</region>

<region>
hikey=c#4
hivel=127
lokey=c4
loop_end=284317
loop_mode=loop_continuous
loop_start=96572
loop_xfade=40737
lovel=0
lpc=VzSOQQpcTMIRgHhCQg0bwjm1EEFBaSlACIO5vwbYj7/MbBdAv6qMviqWrMDv2OxAxccJwFNIpMBYzR5B5xYiwZEy40BswZXAfkirQKqkVMAT7T/Agv3gQIkOwMDwGQhA
lpc_rms=-39.73
pitch_keycenter=c#4
sample=Soloviolin1_trill_perf4th_PP_C#4.opus
</region>

<region>
hikey=c#5
hivel=127
lokey=c5
loop_end=269926
loop_mode=loop_continuous
loop_start=112184
loop_xfade=47322
lovel=0
lpc=wz7JQDH5U8HWkFtBiuYbwZsq0EBNTKHAAD9oQOsSKsC9jjdAMKyLv+1j4b/52ts/QAXSPlNCAsApSxBAihayv/ohB0CY+gfA61EvP2bthT7sZFO9vD8Jvrc4pb4tDFs/
lpc_rms=-46.19
pitch_keycenter=c#5
sample=Soloviolin1_trill_perf4th_PP_C#5.opus
</region>

<region>
hikey=c#6
hivel=127
lokey=c6
loop_end=266177
loop_mode=loop_continuous
loop_start=110626
loop_xfade=46665
lovel=0
lpc=xJMSQRBMfsEhElhB/s/2wCrFq0Cz5VnAODhnQAQpZMDBPmBAQiqzv59xgz854My+koqQPzV5qL/SGvY/FpxEv5xZ5T42lmw9fVJyPwV+AMBcuZZAcg0jwRr0GUFutE7A
lpc_rms=-46.62
pitch_keycenter=c#6
sample=Soloviolin1_trill_perf4th_PP_C#6.opus
</region>

<region>
hikey=d#4
hivel=127
lokey=d4
loop_end=269080
loop_mode=loop_continuous
loop_start=111833
loop_xfade=47174
lovel=0
lpc=LrAdQQbl0sEvOQNCv07DwZU3TkFN2/rAOKjBQLXlG8DGgmO/MTk+QMtQdcDBBjhAgt/cvrJo7b9LllBAlu92wP3ujkCyW5jAmXtmQCCCxb+y3kO/K8H0P3aj678Fh4k/
lpc_rms=-45.70
pitch_keycenter=d#4
sample=Soloviolin1_trill_perf4th_PP_D#4.opus
</region>

<region>
hikey=d#5
hivel=127
lokey=d5
loop_end=269331
loop_mode=loop_continuous
loop_start=104290
loop_xfade=43992
lovel=0
lpc=yqLCQFcdPcHgDThBAU3awMPJV0CAVkPAJGghQKpvHb8+l2w+hlyEvtT1ejzxC4M/+vnKvszpN785SxVAowsRwICyyz+vBoS/+HsQvv37Qz8nmYi/Bq18PyCeKL/lVlk/
lpc_rms=-47.03
pitch_keycenter=d#5
sample=Soloviolin1_trill_perf4th_PP_D#5.opus
</region>

<region>
hikey=d#6
hivel=127
lokey=d6
loop_end=271026
loop_mode=loop_continuous
loop_start=107146
loop_xfade=45197
lovel=0
lpc=ge9YQfuRwsH986xBXuwCwa2DQkDSVxrAY6PEP8oOJL5apAA/Zyy1PyVs8L+A1AdAZtikPgAhnj2hNSG/y0u4P0sIrz8mly3Awx56QCWsUcECCo9BiTYlwSyphb9+fkBA
lpc_rms=-43.04
pitch_keycenter=d#6
sample=Soloviolin1_trill_perf4th_PP_D#6.opus
</region>

<region>
hikey=f4
hivel=127
lokey=e4
loop_end=261020
loop_mode=loop_continuous
loop_start=108483
loop_xfade=45761
lovel=0
lpc=Lq30QK8znsHcdbtBPpN7wXU31kCjvIXAElKHQLs0IcDmx2C+OcQSQOLYY8DFH+8/fvkDQDpshcBHcWlATIsYwKF47j+nCwTAi6YZQK2ntL87fJm+eFqjP0PVib96FNo+
lpc_rms=-46.47
pitch_keycenter=f4
sample=Soloviolin1_trill_perf4th_PP_F4.opus
</region>

<region>
hikey=f5
hivel=127
lokey=e5
loop_end=274303
loop_mode=loop_continuous
loop_start=114004
loop_xfade=48089
lovel=0
lpc=O51TQAzxqcDRaqVA0/klwHo9qz+8Gk6/a+uAP4Twib9UGkw/qn8MPvCq4b6lziA/pBN2vSTX877YSsI/6jC0v0BNfT/new6/rrggP18pur7+dmw/OcBOv+bVOT895WA+
lpc_rms=-46.53
pitch_keycenter=f5
sample=Soloviolin1_trill_perf4th_PP_F5.opus
</region>

<region>
hikey=f6
hivel=127
lokey=e6
loop_end=273613
loop_mode=loop_continuous
loop_start=108553
loop_xfade=45790
lovel=0
lpc=zF/XQGdaPcHruCdBepCBwJrYXkDUpI3A4cRbQGXgg7+OfgBAsHKzv/0xu71LENA//Y2Ev3+lcL90tWdAXvR5wPmMJEB3VqnAvKPhQMyElcDLOqA/DV06wLhulkCXdzDA
lpc_rms=-45.71
pitch_keycenter=f6
sample=Soloviolin1_trill_perf4th_PP_F6.opus
</region>

<region>
hivel=127
key=g3
loop_end=271357
loop_mode=loop_continuous
loop_start=94015
loop_xfade=39658
lovel=0
lpc=vnFHQdZiBsJodxZCXIGRwbwdJsAi/7BAacN2Pw+pHsBuubQ+TfbHP64SgcCx36dAFQQVwK7XK8CfLcBA+cXCwJRViUBqA/y/esf4PpPB+b7ksGg/JRI6v03Si72ax/8+
lpc_rms=-46.44
sample=Soloviolin1_trill_perf4th_PP_G3.opus
</region>

<region>
hikey=g4
hivel=127
lokey=f#4
loop_end=270462
loop_mode=loop_continuous
loop_start=94484
loop_xfade=39855
lovel=0
lpc=fRYhQUfT3MEX8whCUk++wTXIJEG8psjAxULTQBqTi8DXcfQ/0y3Lv1GKnz/L7ne+H3DXPtRSz79SgRlAYFdRwFYTgEC8ZSTAnIxHv1i2c0CprYTAiLInQFjew79l1WQ/
lpc_rms=-43.54
pitch_keycenter=g4
sample=Soloviolin1_trill_perf4th_PP_G4.opus
</region>

<region>
hikey=g5
hivel=127
lokey=f#5
loop_end=265465
loop_mode=loop_continuous
loop_start=99112
loop_xfade=41808
lovel=0
lpc=rPSFQHCjvcCe/J1AfXnsv8mEiT8JUl6/++lZP/xsyb8tmNw/m40hv1+CFz5Qe5++IQ4TP5CWgT7Umdu9WoqvPlGorD0FqCc/N60Ivuxil73R1SY/p76YPvciV79ZhBE+
lpc_rms=-45.55
pitch_keycenter=g5
sample=Soloviolin1_trill_perf4th_PP_G5.opus
</region>

<region>
hikey=g6
hivel=127
lokey=f#6
loop_end=284185
loop_mode=loop_continuous
loop_start=107592
loop_xfade=45385
lovel=0
lpc=eKL2QIrKUMFmPyFB3t4UwKAVoz+YUD3AGyUUQErwDEBWNgXAoO02P6Qck7+hiqA/ccUOPy+Pyr+U4g1Ai8HgwOgK+EBq9NG/RtSRwOy1aEBQvoG/3rDQP0QXjMBdNSJA
lpc_rms=-48.09
pitch_keycenter=g6
sample=Soloviolin1_trill_perf4th_PP_G6.opus
</region>
</group>

<group>
group_label=MF
lpc_hicc1=84
lpc_locc1=43

<region>
hikey=a3
hivel=127
lokey=g#3
loop_end=265753
loop_mode=loop_continuous
loop_start=107519
loop_xfade=45354
lovel=0
lpc=eE0xQTdyAMJsSShCLoP5wUh7R0HLXTvAYCBJQLt6ncB9GJJARRPxv/95CcDdBKNAvBJzwEK79768RoNA/vbIwOT50UBt0X/ACWIuv5flaEC/37i+tg+lwP1AskDRIgHA
lpc_rms=-36.50
pitch_keycenter=a3
sample=Soloviolin1_trill_perf4th_MF_A3.opus
</region>

<region>
hikey=a4
hivel=127
lokey=g#4
loop_end=274261
loop_mode=loop_continuous
loop_start=92631
loop_xfade=39074
lovel=0
lpc=f5biQBazfMHhHYNBfnwkwRh4gUBFrS/A7GwuQFd7z78nwvu8hoUEQKa85L/a+R2+Ct3fP7nkGsCfDHBA6E1qwO1lFkCKu76/BVghP++6774H6T68U+AYP+Slbb+Ei2c/
lpc_rms=-32.50
pitch_keycenter=a4
sample=Soloviolin1_trill_perf4th_MF_A4.opus
</region>

<region>
hikey=a5
hivel=127
lokey=g#5
loop_end=268816
loop_mode=loop_continuous
loop_start=109940
loop_xfade=46375
lovel=0
lpc=hmXRQHNQGMHzD99AwY83wF/fxj6pw1w/nnHpvcEAVr+PkZ8/eAmPPyR2eb8EKqg/xE1OP/2lQ7+It3A/lA/qPqY45b2Hkny7u92SP37q6b9csqm+MRMyQPRhAMDsHeo/
lpc_rms=-32.76
pitch_keycenter=a5
sample=Soloviolin1_trill_perf4th_MF_A5.opus
</region>

<region>
hikey=a6
hivel=127
lokey=g#6
loop_end=265468
loop_mode=loop_continuous
loop_start=110332
loop_xfade=46540
lovel=0
lpc=MlAUQWxh1cAvPUxApzQmQDlaAEBA1l3AmGayQGvxbD/xnlG+UUERP7+wD8CTZAdARTurP/PIpMALDIa/wVGKQA7IXsCtbpu/wViaP5sRpz9C46TA4tgiQKo5RL8yCSJA
lpc_rms=-35.20
pitch_keycenter=a6
sample=Soloviolin1_trill_perf4th_MF_A6.opus
</region>

<region>
hikey=b3
hivel=127
lokey=a#3
loop_end=268088
loop_mode=loop_continuous
loop_start=109362
loop_xfade=46131
lovel=0
lpc=IDRLQWiYCsK75SNCZCTLwZuh0kANrZ4+FmyvP0J3QsBLNv0/8MiDP6eFdcCcE01APO6qvimxO8A28cBAQTfhwBDwt0Aqjj7AKrXSP+epWr+WyBO/R/vzP2kKIMBYPaw/
lpc_rms=-34.22
pitch_keycenter=b3
sample=Soloviolin1_trill_perf4th_MF_B3.opus
</region>

<region>
hikey=b4
hivel=127
lokey=a#4
loop_end=284077
loop_mode=loop_continuous
loop_start=94993
loop_xfade=40070
lovel=0
lpc=4YsWQRHLoMFKVKRB/HBJwb90yECbw6bAQvNBQKY4Eb671Oc+vUSWv5r1Vz2UvJg/zPPNv0QCXD7N49U/qIQWwG9iMkDC0x3APSbaP3oJGb8RCZA+3qoWP2Pngr9VXXY/
lpc_rms=-31.94
pitch_keycenter=b4
sample=Soloviolin1_trill_perf4th_MF_B4.opus
</region>

<region>
hikey=b5
hivel=127
lokey=a#5
loop_end=281091
loop_mode=loop_continuous
loop_start=109202
loop_xfade=46064
lovel=0
lpc=C4zIQOFC+sDiCLxAmRcEwF0YWj+U+Z8/Vm5Cv7LK0D+FuNC+31eWP9esIb9j/Rs+TMygPyku6b2hKWY/h98oP34h5zzdw4M/Y9v3v0LdI0CjtU2/qhUpP2e7iD8C07S/
lpc_rms=-34.08
pitch_keycenter=b5
sample=Soloviolin1_trill_perf4th_MF_B5.opus
</region>

<region>
hikey=b6
hivel=127
lokey=a#6
loop_end=273763
loop_mode=loop_continuous
loop_start=94157
loop_xfade=39718
lovel=0
lpc=Yd0sQWo0QcGkNCJBrJSlPG4bor9kNDtADpRCQKXimr8P26Y/z64hwH/SvUBUwBrAMIriwNVVKUFjPbTAK3l7vjibbEDm0du/qBW0vxIGRUBjRHy/wUyxQHnTkMD20kpA
lpc_rms=-34.59
pitch_keycenter=B6
sample=Soloviolin1_trill_perf4th_MF_B6.opus
</region>

<region>
hikey=c#4
hivel=127
lokey=c4
loop_end=273910
loop_mode=loop_continuous
loop_start=93063
loop_xfade=39256
lovel=0
lpc=HThEQV46CsKWoi1CTeT0wWrENkF0R9W/hAMAP/fOuL/qgAdA4r2gvs2Vk8BNuOZAAWKLwKk16L9c59BAF3TpwN9I0UAY3aHAh/B0QLYVsL/3Gi3AKxeOQNlAP8AxHW0/
lpc_rms=-33.72
pitch_keycenter=c#4
sample=Soloviolin1_trill_perf4th_MF_C#4.opus
</region>

<region>
hikey=c#5
hivel=127
lokey=c5
loop_end=271510
loop_mode=loop_continuous
loop_start=93571
loop_xfade=39470
lovel=0
lpc=QRCTQHVOGMGXLxhBGnK2wJpXHUBd4gXAtPsPQMhYhb9AjxK/HHzhP1k66r9S/aE/pHnGvvA5ir/ClDJAZwQUwHrPfD+BWg6/cBdpP93ukb85OB8/qnSpPl3vG7+hF/o+
lpc_rms=-35.83
pitch_keycenter=c#5
sample=Soloviolin1_trill_perf4th_MF_C#5.opus
</region>

<region>
hikey=c#6
hivel=127
lokey=c6
loop_end=273959
loop_mode=loop_continuous
loop_start=92187
loop_xfade=38886
lovel=0
lpc=prjqQHHwGsHfU+NAM8EEwIl3tz/zrr+9EpvXP3RdW7/hadw/Fo+EP1/1CT9fuJg/I5uZPxqvwD3RAIE/uRqHPxwMgb91QKI/dwT9PxP/57/VQYFAdDXGwBvsv0AMF4C/
lpc_rms=-34.64
pitch_keycenter=c#6
sample=Soloviolin1_trill_perf4th_MF_C#6.opus
</region>

<region>
hikey=d#4
hivel=127
lokey=d4
loop_end=278494
loop_mode=loop_continuous
loop_start=94201
loop_xfade=39736
lovel=0
lpc=M9whQYIP0MF4tOhBhJWKwWUwpkDffgHAyTYIQJVzjD4RpQrA78E1QAnDlsCwDKxAoUDAv/VzasCMRsVApUyzwB1jZUC7OBHA8WC7P+WaJL/1Or2+n5b2PyqjI8DQ570/
lpc_rms=-33.10
pitch_keycenter=d#4
sample=Soloviolin1_trill_perf4th_MF_D#4.opus
</region>

<region>
hikey=d#5
hivel=127
lokey=d5
loop_end=260141
loop_mode=loop_continuous
loop_start=99929
loop_xfade=42152
lovel=0
lpc=uWSLQAkh/sAWLPFAcS6nwKhpiEDXNnnAV/6JQJtLfsA3zU5AQELTvzLDZL5OgKc/TlIzvz7pDb65xuE/2Fr+v6VSpz/vFY++I3+aPnbSf7+Lq+0/dJmYv2SpBD9RN9c9
lpc_rms=-36.57
pitch_keycenter=d#5
sample=Soloviolin1_trill_perf4th_MF_D#5.opus
</region>

<region>
hikey=d#6
hivel=127
lokey=d6
loop_end=222804
loop_mode=loop_continuous
loop_start=92600
loop_xfade=39061
lovel=0
lpc=sTL+QPBsPMHyagtBB3voPbdprr38lvc9J8tVP5mHsT/+430/Qi1SP9s4ND+1Rcw/cHwyPvL/E0ASoVi/mp2HP+JqSkCG9vy/UM42QNSTtMBSl/lAO5/cv4CMV8A1kkNA
lpc_rms=-32.82
pitch_keycenter=d#6
sample=Soloviolin1_trill_perf4th_MF_D#6.opus
</region>

<region>
hikey=f4
hivel=127
lokey=e4
loop_end=276108
loop_mode=loop_continuous
loop_start=114754
loop_xfade=48406
lovel=0
lpc=MQzwQIjEl8GYQ6xBmQdNwXoJMECR43K+6XIBQDsPO8AD/wZA/zsRv5bLlr9JTBpACEMRwBbu9T28US5ASTpBwISrpj+o1Ji9jRIhP4N7Ur/SY66+Hy6LP6bwTL+sE38+
lpc_rms=-36.96
pitch_keycenter=f4
sample=Soloviolin1_trill_perf4th_MF_F4.opus
</region>

<region>
hikey=f5
hivel=127
lokey=e5
loop_end=281819
loop_mode=loop_continuous
loop_start=94862
loop_xfade=40015
lovel=0
lpc=W048QF3rhcCksllAHNyHv7D11j5JUiy+mg+NP5Jgxb98AJ8/iYqnvQTsI75rm9w+ScCWPLlVLb6uKjk/yUkev/0bBz+01s0++cnJvpM4zj2x6nU/ChtbvzFoWD+gFgO9
lpc_rms=-34.75
pitch_keycenter=f5
sample=Soloviolin1_trill_perf4th_MF_F5.opus
</region>

<region>
hikey=f6
hivel=127
lokey=e6
loop_end=230403
loop_mode=loop_continuous
loop_start=95758
loop_xfade=40393
lovel=0
lpc=tiS5QOmF6cDoMJZAqhynPzaBkj92bMq/c5pBQFgajj5ZOQpAQPJHP0BEqz4mhhdA80sLP8wHIr55hoFAKT3Dv5ZVAECEZRzA49GIQO5Vfr71ryq/7HgevzACOUARzJm/
lpc_rms=-34.78
pitch_keycenter=f6
sample=Soloviolin1_trill_perf4th_MF_F6.opus
</region>

<region>
hivel=127
key=g3
loop_end=268006
loop_mode=loop_continuous
loop_start=93760
loop_xfade=39550
lovel=0
lpc=qUFNQYXKCsKUdyBCGaC5wTopUkAg9FlApXryvmYhJsCMbiNA/rW6vtrMRMDu2Y1A9IURwJ4xob8ewZVARpq/wPRelUA7wyDA44BWP968mj9zvgLAn8CtP2KLE78cz0o+
lpc_rms=-32.66
sample=Soloviolin1_trill_perf4th_MF_G3.opus
</region>

<region>
hikey=g4
hivel=127
lokey=f#4
loop_end=274544
loop_mode=loop_continuous
loop_start=97070
loop_xfade=40947
lovel=0
lpc=O3QiQY8a1MGTD/dBvAmZwc09tUAnugnAaL5cQEtuAMDT8HK+JPDzPvKEJr4K9FI/lALxv++4Cz9+QVJAhJ+ywDkViEApH7G/b+mOPboFDD8D26y/LxUSQEa0BsBP84Q/
lpc_rms=-32.70
pitch_keycenter=g4
sample=Soloviolin1_trill_perf4th_MF_G4.opus
</region>

<region>
hikey=g5
hivel=127
lokey=f#5
loop_end=268823
loop_mode=loop_continuous
loop_start=92392
loop_xfade=38973
lovel=0
lpc=TG53QHhUn8CPnGlADb+Ovysi1j4LqcS+ETOGPz+xt7+7B7g/vpKOPg3QzL6LJKM9qmVSvP3E7j6XJY4+E5uUPvzMID01WgI/HK+Vvu+6RrzhGgE/FwbyvOq21r5RsaU+
lpc_rms=-35.23
pitch_keycenter=g5
sample=Soloviolin1_trill_perf4th_MF_G5.opus
</region>

<region>
hikey=g6
hivel=127
lokey=f#6
loop_end=257047
loop_mode=loop_continuous
loop_start=106832
loop_xfade=45064
lovel=0
lpc=17y+QF4tj8D5oEZA1knMP68amT/8Tz++keMPQEc3gj2hOE1A+ICovryEBj/MeKm7kPivPlYU6D7Xzw4/MmmJwMc1wT941EE/7i9XwGA1kb0wpNW9RSy3v1I8+T3GESnA
lpc_rms=-37.85
pitch_keycenter=g6
sample=Soloviolin1_trill_perf4th_MF_G6.opus
</region>
</group>

<group>
group_label=FF
lpc_hicc1=127
lpc_locc1=85

<region>
hikey=a3
hivel=127
lokey=g#3
loop_end=278934
loop_mode=loop_continuous
loop_start=95405
loop_xfade=40244
lovel=0
lpc=NcQJQYshtMFml9hBAkiXwT3M3kCnYHS/5zA8PxUdGMBW4mJAyfIHwHGa/L+pp4pArr0awM70dL9q9UBAHOdwwMzlT0A5RYm/zlWrvynj/j8nslm+hsikv37wgD/+x1q+
lpc_rms=-25.15
pitch_keycenter=a3
sample=Soloviolin1_trill_perf4th_FF_A3.opus
</region>

<region>
hikey=a4
hivel=127
lokey=g#4
loop_end=288563
loop_mode=loop_continuous
loop_start=98130
loop_xfade=41393
lovel=0
lpc=Km2yQOP7MMEn6CBBYOeywLkDJUAXDFjAUt5xQBNDNsAWI/c/FzIIvsa3k7+3r9c/dQmav+o5kb6Mc+Y/Mjexvzrc/z4mnEi/wke/P9aV6L+3bWU/i6smPUX7U7/8f4Y/
lpc_rms=-26.32
pitch_keycenter=a4
sample=Soloviolin1_trill_perf4th_FF_A4.opus
</region>

<region>
hikey=a5
hivel=127
lokey=g#5
loop_end=280441
loop_mode=loop_continuous
loop_start=94301
loop_xfade=39778
lovel=0
lpc=DtO6QPC6BsGHb81ABMgfwIxzAb4LSw4/yTfHPt4Evr5RaBw/yQ3sP3UaA8DA/ug/i0wAPwjOMr/UlZA/7JD3PImILz5R55W9IsDAP/+Tnr8UgrG/VB9EQOjyKcAb4RdA
lpc_rms=-23.67
pitch_keycenter=a5
sample=Soloviolin1_trill_perf4th_FF_A5.opus
</region>

<region>
hikey=a6
hivel=127
lokey=g#6
loop_end=277446
loop_mode=loop_continuous
loop_start=109119
loop_xfade=46029
lovel=0
lpc=dsf8QPzrs8C8vYhAJOUvQE2lEUAr9Ie/CE50QOLyR0AuwQC7I0YvQLL/cb/SypE/NzEOQCBZH8CX4UrAIElZQJNDEcAN6yjAitpvPlslxz4PL1nABZ9tvyC2KL4vXoW+
lpc_rms=-25.88
pitch_keycenter=a6
sample=Soloviolin1_trill_perf4th_FF_A6.opus
</region>

<region>
hikey=b3
hivel=127
lokey=a#3
loop_end=279692
loop_mode=loop_continuous
loop_start=96659
loop_xfade=40773
lovel=0
lpc=YlYeQZRMxsEQl9ZBkR5swd6DGUA3uo2+gFVEQD+jR8Cc2yc/lvITQFGuhsDYY1NAs6Sov8Wpfb+oaVJA4RpgwJVHKUDzCq6//9mfP50tmr9kCqw+xtIyvl6xxj0Gxxo+
lpc_rms=-23.28
pitch_keycenter=b3
sample=Soloviolin1_trill_perf4th_FF_B3.opus
</region>

<region>
hikey=b4
hivel=127
lokey=a#4
loop_end=281698
loop_mode=loop_continuous
loop_start=95091
loop_xfade=40111
lovel=0
lpc=I869QG/VS8EMQ1BBABD8wEEpckA/SVvAvNlVQBnsJ8BmFANAZ9amvjDj4L9esxdAqs3ovzZP7D2ZTsM/SACkv7utAD+ZNrC+aol0PyBXKb8RazO+mf9CPzKDKr+oVQg/
lpc_rms=-26.40
pitch_keycenter=b4
sample=Soloviolin1_trill_perf4th_FF_B4.opus
</region>

<region>
hikey=b5
hivel=127
lokey=a#5
loop_end=282062
loop_mode=loop_continuous
loop_start=110431
loop_xfade=46583
lovel=0
lpc=KRZfQJhrcMC3bClAtSsvv2G6jD/WfGy/czcLQDQ+Pb9Supc+hAEsP/pLcj19C1M8H4eMP4nnHb2rxFk+QlGBPxMMLL4AWAA/pwLWPbcX9b0Kuis/jnl9PkYPzT6Q8qy+
lpc_rms=-27.14
pitch_keycenter=b5
sample=Soloviolin1_trill_perf4th_FF_B5.opus
</region>

<region>
hikey=b6
hivel=127
lokey=a#6
loop_end=283488
loop_mode=loop_continuous
loop_start=94705
loop_xfade=39948
lovel=0
lpc=0UbOQF/DXcBglV5AtEtLQH6kpj+El98/rq2cQEYODD9s01ZAL6sXPPMabj+HKmtADwc6wHF0zL8D9kpAU0dVwGFFob+C94c+3uAUwGxDFcB9tis+B578vygyBEBHqAzA
lpc_rms=-26.36
pitch_keycenter=B6
sample=Soloviolin1_trill_perf4th_FF_B6.opus
</region>

<region>
hikey=c#4
hivel=127
lokey=c4
loop_end=285740
loop_mode=loop_continuous
loop_start=97075
loop_xfade=40949
lovel=0
lpc=v78YQYTNvMGYZcpBwAhrwe6oh0BzxJu/9Pz3P3t7EsDnWpI/INGlP1Mjb8DZumVAXSTYv4M7f7/E6HZACmuGwNeVMkBSC6i//kJ0PzCkCL97fuQ9xGRUvwgzVz/T+VW9
lpc_rms=-22.58
pitch_keycenter=c#4
sample=Soloviolin1_trill_perf4th_FF_C#4.opus
</region>

<region>
hikey=c#5
hivel=127
lokey=c5
loop_end=285156
loop_mode=loop_continuous
loop_start=97435
loop_xfade=41100
lovel=0
lpc=jDCNQEQVCcHdKABB2Q+RwNsvF0AyUy7AJXxBQB1dEcDx9Y8/QyYRP9Ajr7+AWK8/KxKQvzN5bT7Qw2I/r1QWv6Eifj1zrQw+nncAPkH75L5vKfo+J6M9PlP8U7+1YVQ/
lpc_rms=-29.27
pitch_keycenter=c#5
sample=Soloviolin1_trill_perf4th_FF_C#5.opus
</region>

<region>
hikey=c#6
hivel=127
lokey=c6
loop_end=285717
loop_mode=loop_continuous
loop_start=95631
loop_xfade=40340
lovel=0
lpc=bkCaQCk8wsAxPZNA1c7Pv/uvij92ExE/DfT+PiwUuz5AZrk+WOucP0Zifj5mGFs/XKKmPuBzgz9ghsM9ugyRP9Bijb9VNQ5AhGmFvvRvdj46WNU/YQJCwOBIIUAHW4Y+
lpc_rms=-25.59
pitch_keycenter=c#6
sample=Soloviolin1_trill_perf4th_FF_C#6.opus
</region>

<region>
hikey=d#4
hivel=127
lokey=d4
loop_end=287417
loop_mode=loop_continuous
loop_start=99088
loop_xfade=41798
lovel=0
lpc=9SQQQUh7s8F6PsJBEWNTwY0d3T8h+Qc/U3z/P5ZyDMDBeUE/b1iFPwwdE8DpJidArh4WwLMH2L2tX2lAuxufwJkQTUA6PSO/loLYPhXIc7/NGPk9Cu1hP+I9rL+kIYU/
lpc_rms=-26.58
pitch_keycenter=d#4
sample=Soloviolin1_trill_perf4th_FF_D#4.opus
</region>

<region>
hikey=d#5
hivel=127
lokey=d5
loop_end=284503
loop_mode=loop_continuous
loop_start=95804
loop_xfade=40412
lovel=0
lpc=nkeIQIYB98DYxdlAay1cwAUHqD/wXoC/MUCTP50job9XINY/mZbEvnELQ79B0tc/OuKuv71DDD+NCVI/pEkbv42uRL7nWfw+3Lcnvlr//L3t1BQ/k+kuv/b3VT56Y/Q+
lpc_rms=-29.02
pitch_keycenter=d#5
sample=Soloviolin1_trill_perf4th_FF_D#5.opus
</region>

<region>
hikey=d#6
hivel=127
lokey=d6
loop_end=287150
loop_mode=loop_continuous
loop_start=115495
loop_xfade=48719
lovel=0
lpc=7oOjQMB2tMBtSIZAeFZIvVSCDj+RFrU/aXVMvlZWpz/zPpq8EWYAQD3CCb9kDd4/X9f6Pg4h1j/3mK2/lAHpP8iCjj+gupO+2lfvP0jBPcCxyytAP6yRvsBHBL8DpbA+
lpc_rms=-26.30
pitch_keycenter=d#6
sample=Soloviolin1_trill_perf4th_FF_D#6.opus
</region>

<region>
hikey=f4
hivel=127
lokey=e4
loop_end=287582
loop_mode=loop_continuous
loop_start=98040
loop_xfade=41355
lovel=0
lpc=u8bOQNIOdcHzgINBwfQOwZTmkT8LTPU8pzq1Pxvkrr8fvY8+kHRSPwiC479DBgtA7XPgv/LEOr7gjSZASYpNwABeD0CP4C6/5dIsP+Cdhr85AP4+5OMIPjN4I78mVf0+
lpc_rms=-28.95
pitch_keycenter=f4
sample=Soloviolin1_trill_perf4th_FF_F4.opus
</region>

<region>
hikey=f5
hivel=127
lokey=e5
loop_end=271711
loop_mode=loop_continuous
loop_start=93802
loop_xfade=39568
lovel=0
lpc=r+ZKQDnBmMDujHRAXh6wv5dETz9e2kW/tjhuPxkxgL/3hYg/FTl0vpt1szx9I7w+JD2EPmivwr60IIE/mNJavyw63z6eAh0/65kvv+s+jDzBDps/0Q6sv4wzkT8nhaK9
lpc_rms=-25.95
pitch_keycenter=f5
sample=Soloviolin1_trill_perf4th_FF_F5.opus
</region>

<region>
hikey=f6
hivel=127
lokey=e6
loop_end=272065
loop_mode=loop_continuous
loop_start=91674
loop_xfade=38670
lovel=0
lpc=YX66QD3+rMDzQ5JAD78KP/cyHUCWyYc/bfW3P0kYzj9BZT9AIqkvQMKOCz8Z8XRAJzL5P+GzUz+saodAhDIjP3OaVEBvSMq/IIs+QGXbAUDVefc+U9WnPhEc5T7ImPs/
lpc_rms=-24.37
pitch_keycenter=f6
sample=Soloviolin1_trill_perf4th_FF_F6.opus
</region>

<region>
hivel=127
key=g3
loop_end=277901
loop_mode=loop_continuous
loop_start=95474
loop_xfade=40273
lovel=0
lpc=AdA8QW3a68FC3/1BujaKwdbCCECmz1u88u9xQO5jUMA0REw/bx7EPwgcicDAFotAqoLev8DgAMAizaFABbuawDWaQUDiRlW/Wo8SP/Zhmb8+FuA+qaftPsgbML+hh9o+
lpc_rms=-23.22
sample=Soloviolin1_trill_perf4th_FF_G3.opus
</region>

<region>
hikey=g4
hivel=127
lokey=f#4
loop_end=273084
loop_mode=loop_continuous
loop_start=95084
loop_xfade=40109
lovel=0
lpc=O54XQdkwvsGZZ85BCCxdwYyw8j9dRy6/EyV3QJAwUcCXSrQ/3LPmPme/I8B+imZAqkBhwIsoHz9PrWxANOqnwAuVYUAoDki/7O8dP7WLpb9ggHG9CqriP4pABsBJwZs/
lpc_rms=-24.76
pitch_keycenter=g4
sample=Soloviolin1_trill_perf4th_FF_G4.opus
</region>

<region>
hikey=g5
hivel=127
lokey=f#5
loop_end=273916
loop_mode=loop_continuous
loop_start=92943
loop_xfade=39206
lovel=0
lpc=zY5AQJ1ogsCw9CBAq7knv8Sdnj+7rvm/cHIjQK5t1r8wrJY/GYEmvvA3tz755mS+zn2tPiL/LD/u4e2+2kHRPlXMib5LdaQ/57u0v/40mz/e5XG+XNDvPl3DhL+dzmc/
lpc_rms=-26.38
pitch_keycenter=g5
sample=Soloviolin1_trill_perf4th_FF_G5.opus
</region>

<region>
hikey=g6
hivel=127
lokey=f#6
loop_end=277280
loop_mode=loop_continuous
loop_start=77699
loop_xfade=39493
lovel=0
lpc=zBq8QEUQhsCDrzxA0j8rQGThND6gh80/H9C9P5qv2D8M1Oc/i14LQK5PEj4pJB4/kPmaP0Ghpj9Wp8Y+h2ABwE1KJT5WsOw/N4EpwO8gBj5NZD29clbGv/IDrz/4vkjA
lpc_rms=-26.40
pitch_keycenter=g6
sample=Soloviolin1_trill_perf4th_FF_G6.opus
</region>
</group>